<svg xmlns="http://www.w3.org/2000/svg" viewBox="0 0 48 42">
  <g transform="translate(0.324 0.532)">
    <path d="M 0 41.407 L 0 0 L 47.477 0 L 47.477 41.407 Z" fill="transparent"></path>
    <path d="M 0 0 L 18.684 0 C 21.167 0 23.549 0.976 25.306 2.714 C 27.062 4.453 28.049 6.81 28.049 9.268 C 28.049 11.726 27.062 14.083 25.306 15.82 C 23.549 17.558 21.167 18.534 18.684 18.534 L 0 18.534 Z" fill="#2206e9"></path>
    <path d="M 0 22.644 L 20.16 22.644 C 22.644 22.644 25.026 23.62 26.783 25.358 C 28.539 27.096 29.526 29.454 29.526 31.912 C 29.525 34.369 28.538 36.726 26.781 38.464 C 25.025 40.202 22.643 41.178 20.16 41.178 L 0 41.178 Z" fill="#2206e9"></path>
    <path d="M 40.725 41.407 C 44.454 41.407 47.477 38.416 47.477 34.726 C 47.477 31.036 44.454 28.045 40.725 28.045 C 36.996 28.045 33.974 31.036 33.974 34.726 C 33.974 38.416 36.996 41.407 40.725 41.407 Z" fill="#2206e9"></path>
  </g>
</svg> 